<?xml version="1.0" encoding="UTF-8"?>
<svg id="Laag_1" xmlns="http://www.w3.org/2000/svg" version="1.1" viewBox="0 0 428.5 37.3">
  <!-- Generator: Adobe Illustrator 29.2.0, SVG Export Plug-In . SVG Version: 2.1.0 Build 108)  -->
  <defs>
    <style>
      .st0 {
        fill: none;
      }
    </style>
  </defs>
  <path d="M261.6,2h14c10.2,0,17,6.4,17,16.3s-6.5,17.2-17.3,17.2h-13.6V2ZM269.2,29.6h5.7c6.7,0,9.8-4.8,9.8-11.3s-2.8-10.5-9.7-10.5h-5.8v21.8Z"/>
  <path d="M329,18.6c0,9.3-5.9,17.4-17.3,17.4s-16.8-7.6-16.8-17.3,6.4-17.2,17.3-17.2,16.8,6.9,16.8,17.1M302.7,18.6c0,6.6,3,11.5,9.2,11.5s9.2-5.4,9.2-11.4-2.8-11.3-9.3-11.3-9.1,4.7-9.1,11.2"/>
  <path d="M365.4,18.6c0,9.3-5.9,17.4-17.3,17.4s-16.8-7.6-16.8-17.3,6.4-17.2,17.3-17.2,16.8,6.9,16.8,17.1M339.1,18.6c0,6.6,3,11.5,9.2,11.5s9.2-5.4,9.2-11.4-2.8-11.3-9.3-11.3-9.1,4.7-9.1,11.2"/>
  <path d="M376.8,22.1v13.4h-7.5V2h15.5c7.7,0,11.8,4,11.8,9.2s-2.6,6.9-5.1,7.9c1.7.6,4.4,2.3,4.4,8.4v1.7c0,2.2,0,4.8.5,6.4h-7.3c-.6-1.5-.7-4-.7-7.5v-.5c0-3.6-1-5.4-6.6-5.4h-5ZM376.8,16.3h6.4c4.1,0,5.8-1.5,5.8-4.3s-1.9-4.3-5.6-4.3h-6.5v8.6Z"/>
  <path d="M406.2,25.7c.8,3.4,3.3,4.9,7.4,4.9s5.8-1.6,5.8-4-1.7-3.9-7.7-5.2c-9.6-2.1-11.9-5.5-11.9-10s4.6-9.8,12.9-9.8,13.1,4.8,13.6,9.7h-7.7c-.4-2.1-1.6-4.3-6.1-4.3s-5,1.2-5,3.6,1.5,3.3,7.2,4.5c10.2,2.3,12.5,5.9,12.5,10.7s-4.9,10.3-14.1,10.3-13.7-4.2-14.5-10.3h7.7Z"/>
  <path d="M1.2,2h14c10.2,0,17,6.4,17,16.3s-6.5,17.2-17.3,17.2H1.2V2ZM8.8,29.6h5.7c6.7,0,9.8-4.8,9.8-11.3s-2.8-10.5-9.7-10.5h-5.8v21.8Z"/>
  <rect x="35.6" y="2" width="7.6" height="33.5"/>
  <polygon points="48 2 69.8 2 69.8 7.9 55.5 7.9 55.5 16.1 68.8 16.1 68.8 22.1 55.5 22.1 55.5 35.5 48 35.5 48 2"/>
  <polygon points="123.5 21.1 106.6 21.1 106.6 29.6 125.2 29.6 124.3 35.5 99.2 35.5 99.2 2 124.2 2 124.2 8 106.6 8 106.6 15.1 123.5 15.1 123.5 21.1"/>
  <path d="M135.4,22.1v13.4h-7.5V2h15.5c7.7,0,11.8,4,11.8,9.2s-2.6,6.9-5.1,7.9c1.7.6,4.4,2.3,4.4,8.4v1.7c0,2.2,0,4.8.5,6.4h-7.2c-.6-1.5-.7-4-.7-7.5v-.5c0-3.6-1-5.4-6.6-5.4h-5ZM135.4,16.3h6.4c4.1,0,5.8-1.5,5.8-4.3s-1.9-4.3-5.6-4.3h-6.5v8.6Z"/>
  <polygon points="183.6 21 166.8 21 166.8 29.5 185.4 29.5 184.4 35.5 159.4 35.5 159.4 2 184.3 2 184.3 7.9 166.8 7.9 166.8 15.1 183.6 15.1 183.6 21"/>
  <path d="M188.1,35.5V2h9.4c4.4,7.5,12.5,21.1,14.1,24.7h.1c-.4-3.5-.4-9.3-.4-14.8V2h6.9v33.5h-8.9c-3.8-6.6-12.8-22.1-14.6-26h-.1c.3,2.9.4,9.8.4,15.8v10.2h-6.9Z"/>
  <polygon points="231.6 7.9 220.9 7.9 220.9 2 249.9 2 249.9 7.9 239.2 7.9 239.2 35.5 231.6 35.5 231.6 7.9"/>
  <polygon points="87.2 2 72.9 2 72.9 7.9 87.2 7.9 87.2 16.1 73.9 16.1 73.9 22.1 87.2 22.1 87.2 35.5 94.7 35.5 94.7 7.9 94.7 2 87.2 2"/>
  <rect class="st0" x="1.2" y="1.5" width="426" height="34.5"/>
</svg>